<svg width="100" height="100" viewBox="0 0 100 100" fill="none" xmlns="http://www.w3.org/2000/svg">
<rect width="100" height="100" rx="20" fill="white"/>
<g clip-path="url(#clip0_502_71)">
<path d="M81.2038 17.6166C80.4853 16.5389 79.2279 16 77.9706 16H21.0295C19.7722 16 18.5148 16.5389 17.7963 17.6166C16.8982 18.5147 16.7185 19.7721 16.8982 21.0295L27.3164 60.7265L31.2681 79.5871C31.6274 81.563 33.4236 82.8204 35.3995 82.8204H63.9598C65.9357 82.8204 67.5523 81.3834 68.0912 79.5871L71.6837 60.7265L82.1019 21.0295C82.2815 19.7721 81.9223 18.5147 81.2038 17.6166ZM64.3191 55.6971H34.681L26.059 24.2627H72.9411L64.3191 55.6971Z" fill="#F97316"/>
</g>
<defs>
<clipPath id="clip0_502_71">
<rect width="67" height="67" fill="white" transform="translate(16 16)"/>
</clipPath>
</defs>
</svg>
