<?xml version="1.0" encoding="utf-8"?>
<!-- Generator: Adobe Illustrator 24.2.1, SVG Export Plug-In . SVG Version: 6.00 Build 0)  -->
<svg version="1.1" id="Capa_1" xmlns="http://www.w3.org/2000/svg" xmlns:xlink="http://www.w3.org/1999/xlink" x="0px" y="0px"
	 viewBox="0 0 654.6 246.4" style="enable-background:new 0 0 654.6 246.4;" xml:space="preserve">
<style type="text/css">
	.st0{fill:#FF5A1F;}
</style>
<path class="st0" d="M153.7,48.2c-1.7-2.6-4.7-3.9-7.7-3.9H10c-3,0-6,1.3-7.7,3.9c-2.1,2.1-2.6,5.1-2.1,8.1L25,151.2l0,0l9.4,45
	c0.9,4.7,5.1,7.7,9.9,7.7h68.2c4.7,0,8.6-3.4,9.9-7.7l8.6-45l0,0l24.9-94.8C156.2,53.4,155.4,50.4,153.7,48.2z M113.4,139.1H42.6
	L22,64.1h111.9L113.4,139.1z"/>
<g>
	<g>
		<path d="M211.6,85.1h51.3v15.4H230v18.8h28.1v15.4H230v31.6h-18.4V85.1z"/>
		<path d="M271.8,135.5c0-20.6,14.5-32.5,30.1-32.5c15.7,0,30.1,11.9,30.1,32.5c0,20.5-14.5,32.4-30.1,32.4S271.8,156,271.8,135.5z
			 M313.3,135.5c0-10.7-3.8-17.7-11.4-17.7s-11.4,7-11.4,17.7s3.8,17.6,11.4,17.6C309.6,153.1,313.3,146.2,313.3,135.5z"/>
		<path d="M346.2,85.1h29.3c17.2,0,31.4,6,31.4,25.3c0,18.7-14.1,26.7-31.4,26.7h-10.9v29.3h-18.4V85.1z M373.9,122.6
			c9.7,0,14.9-4.1,14.9-12.1s-5.2-10.7-14.9-10.7h-9.4v22.9h9.4V122.6z M372.1,132.3l12.7-11.8l25.9,45.9h-20.6L372.1,132.3z"/>
		<path d="M421.1,79.1h18.3v21.3l-0.8,11.2c4.6-4.2,10.7-8.6,19.1-8.6c13.5,0,19.2,9.5,19.2,25v38.4h-18.3v-36.1
			c0-8.9-2.4-11.7-7.7-11.7c-4.6,0-7.4,2.1-11.5,6v41.7h-18.3L421.1,79.1L421.1,79.1z"/>
		<path d="M491.7,143v-38.4H510v36.1c0,8.9,2.4,11.7,7.7,11.7c4.6,0,7.4-1.9,11-6.8v-40.9H547v61.9h-15l-1.3-8.6h-0.5
			c-5.2,6.2-11,10.1-19.4,10.1C497.4,167.9,491.7,158.4,491.7,143z"/>
		<path d="M563.1,104.6h15l1.3,7.9h0.5c5.1-5.1,10.6-9.4,18.8-9.4c8.7,0,14,3.8,17.1,10.4c5.4-5.7,11.3-10.4,19.4-10.4
			c13.4,0,19.4,9.5,19.4,25v38.4h-18.3v-36.1c0-8.9-2.4-11.7-7.6-11.7c-3.1,0-6.6,1.9-10.5,6v41.7h-18.3v-36.1
			c0-8.9-2.4-11.7-7.6-11.7c-3.1,0-6.6,1.9-10.5,6v41.7h-18.3v-61.7H563.1z"/>
	</g>
</g>
</svg>
