<?xml version="1.0" encoding="utf-8"?>
<!-- Generator: Adobe Illustrator 24.2.1, SVG Export Plug-In . SVG Version: 6.00 Build 0)  -->
<svg version="1.1" id="Capa_1" xmlns="http://www.w3.org/2000/svg" xmlns:xlink="http://www.w3.org/1999/xlink" x="0px" y="0px"
	 viewBox="0 0 37.3 37.3" style="enable-background:new 0 0 37.3 37.3;" xml:space="preserve">
<path d="M36.3,0.9C35.9,0.3,35.2,0,34.5,0H2.8C2.1,0,1.4,0.3,1,0.9C0.5,1.4,0.4,2.1,0.5,2.8l5.8,22.1l0,0l2.2,10.5
	c0.2,1.1,1.2,1.8,2.3,1.8h15.9c1.1,0,2-0.8,2.3-1.8L31,24.9l0,0l5.8-22.1C36.9,2.1,36.7,1.4,36.3,0.9z M26.9,22.1H10.4L5.6,4.6h26.1
	L26.9,22.1z"/>
</svg>
